<?xml version="1.0" encoding="utf-8"?>
<!-- Generator: Adobe Illustrator 27.5.0, SVG Export Plug-In . SVG Version: 6.00 Build 0)  -->
<svg version="1.1" xmlns="http://www.w3.org/2000/svg" xmlns:xlink="http://www.w3.org/1999/xlink" x="0px" y="0px"
	 viewBox="0 0 750 500" style="enable-background:new 0 0 750 500;" xml:space="preserve">
<g id="BACKGROUND">
	<rect style="fill:#63A0D7;" width="750" height="500"/>
</g>
<g id="OBJECTS">
	<g style="opacity:0.2;">
		<path style="fill:#25394D;" d="M409.75,237.689c-0.956,0.202-1.864,0.526-2.722,0.939c-1.223-4.4-5.248-7.633-10.038-7.633
			c-1.08,0-2.122,0.164-3.102,0.469c0.689-1.494,1.084-3.151,1.084-4.904c0-4.363-2.385-8.161-5.917-10.185v-23.791l-40.983-38.209
			h-58.968l-43.345,38.209v89.155l-4.591,3.881c-1.151-1.327-2.716-2.283-4.498-2.66c0.011-0.228,0.034-0.452,0.034-0.682
			c0-7.986-6.474-14.46-14.46-14.46c-7.986,0-14.46,6.474-14.46,14.46c0,1.557,0.253,3.054,0.708,4.459
			c-0.203-0.015-0.405-0.031-0.611-0.031c-1.5,0-2.902,0.408-4.112,1.11c-1.499-0.707-3.134-1.171-4.861-1.324l-4.226,0.234
			c-6.578,1.357-11.525,7.18-11.525,14.16c0,1.557,0.253,3.054,0.708,4.459c-0.203-0.015-0.405-0.031-0.611-0.031
			c-4.54,0-8.219,3.68-8.219,8.22c0,4.116,3.028,7.515,6.976,8.116c0,0.121,0,0.242,0,0.364c0,0.674,0.571,1.244,1.244,1.244
			c0.593,0,1.186,0,1.78,0c3.216,0,6.432,0,9.648,0v28.956c-4.283-1.557-9.266-0.63-12.701,2.805
			c-2.197,2.197-3.36,5.029-3.515,7.906c-0.291-0.364-0.601-0.718-0.938-1.055c-4.941-4.941-12.952-4.941-17.893,0
			c-3.885,3.885-4.701,9.663-2.477,14.36c-2.509,0.6-4.891,1.862-6.849,3.82c-2.751,2.751-4.151,6.336-4.22,9.941
			c-0.246,0.326-0.482,0.657-0.697,0.998c-1.394,0.56-2.701,1.404-3.83,2.533c-4.483,4.483-4.483,11.75,0,16.233
			c2.445,2.445,5.717,3.546,8.916,3.324c-0.02,0.047-0.033,0.08-0.033,0.08h48.914h1.754h98.998h1.754h41.75h0.472h2.266h65.73
			h52.625h2.363h13.007v-32.87h0.151v32.87h11.612h25.135h42.86h43.478h9.671h3.418h0.302h1.452h84.279h2.649h13.012h17.652
			c0,0,1.796-18.11-19.391-18.957c-2.343-0.094-4.388-0.054-6.225,0.078c-1.419-1.336-3.089-2.632-5.047-3.849v-14.685
			c0.109,0,0.219,0,0.328,0c3.894,0,7.788,0,11.682,0c0.711,0,1.313-0.603,1.313-1.313c0-0.348,0-0.696,0-1.043
			c4.212-0.595,7.455-4.205,7.455-8.581c0-4.174-2.948-7.657-6.875-8.487c0.011-0.24,0.036-0.477,0.036-0.72
			c0-8.43-6.834-15.264-15.264-15.264s-15.264,6.834-15.264,15.264c0,1.644,0.267,3.224,0.748,4.707
			c-0.214-0.016-0.427-0.033-0.645-0.033c-4.792,0-8.677,3.885-8.677,8.677c0,4.345,3.197,7.933,7.364,8.567
			c0,0.128,0,0.256,0,0.384c0,0.711,0.603,1.313,1.313,1.313c0.626,0,1.252,0,1.879,0c3.986,0,7.972,0,11.958,0v9.713
			c-4.92-2.534-11.368-4.576-19.818-5.646c-1.554-0.197-3.031-0.469-4.45-0.797c1.105-1.764,1.755-3.844,1.755-6.079
			c0-6.311-5.095-11.429-11.395-11.474c0.611-1.601,0.961-3.331,0.961-5.147c0-2.768-0.792-5.346-2.142-7.544
			c4.894-1.748,8.403-6.411,8.403-11.905c0-6.988-5.664-12.652-12.652-12.652c-0.477,0-0.946,0.031-1.409,0.083
			c1.924-2.144,3.105-4.968,3.105-8.075c0-4.471-2.43-8.367-6.036-10.463c3.255-1.094,5.603-4.163,5.603-7.787
			c0-3.954-2.793-7.254-6.513-8.04c0.011-0.228,0.034-0.452,0.034-0.682c0-3.494-1.239-6.699-3.303-9.199v-18.06
			c0.347-0.188,0.671-0.409,0.955-0.678l2.237,3.366c0.122,0.184,0.292,0.33,0.492,0.424l28.729,13.489
			c0.418,0.196,0.76-0.381,0.387-0.653l-25.619-18.678c-0.148-0.108-0.32-0.181-0.501-0.213l-4.34-0.765
			c0.003-0.071,0.021-0.138,0.021-0.21c0-1.863-1.141-3.458-2.76-4.13l1.782-3.69c0.096-0.199,0.135-0.419,0.114-0.639
			l-3.025-31.594c-0.044-0.46-0.715-0.46-0.759,0l-3.025,31.561c-0.018,0.183,0.007,0.368,0.072,0.54l1.437,3.816
			c-1.63,0.668-2.78,2.266-2.78,4.136c0,0.088,0.021,0.169,0.026,0.256l-4.19,0.802c-0.18,0.035-0.351,0.11-0.498,0.221
			l-23.549,17.706l-8.62-7.009l-1.818-84.373l-85.247,0.882h-57.028v18.087h-2.813c0.397-0.964,0.619-2.018,0.619-3.125
			c0-3.954-2.793-7.254-6.513-8.04c0.011-0.228,0.034-0.452,0.034-0.682c0-7.986-6.474-14.46-14.46-14.46
			c-7.986,0-14.46,6.474-14.46,14.46c0,1.557,0.253,3.054,0.708,4.459c-0.203-0.015-0.405-0.031-0.611-0.031
			c-4.269,0-7.776,3.255-8.179,7.419h-1.01v32.454c-1.749-1.586-3.959-2.664-6.411-3.011L409.75,237.689z M701.884,376.591
			c-3.055,0-6.109,0-9.164,0c2.592-1.401,4.379-4.084,4.536-7.197c1.597,0.755,3.34,1.246,5.182,1.405v5.792
			C702.253,376.591,702.068,376.591,701.884,376.591z M705.087,373.12v-2.322c1.712-0.147,3.341-0.576,4.844-1.242
			c1.109,1.692,2.792,2.972,4.774,3.564C711.498,373.12,708.292,373.12,705.087,373.12z M198.908,319.971c0.091,0,0.183,0,0.274,0
			c0.449,0,0.899,0,1.348,0l-1.622,1.371V319.971z M217.516,305.614c-0.189-0.338-0.404-0.658-0.637-0.964c0.592,0,1.185,0,1.777,0
			L217.516,305.614z M216.081,295.344c1.513,0.715,3.164,1.181,4.909,1.331v5.487c-0.175,0-0.35,0-0.525,0c-2.223,0-4.446,0-6.669,0
			c-0.403-0.188-0.823-0.343-1.258-0.464C214.581,300.29,215.948,297.98,216.081,295.344z M646.668,306.801
			c0.901-0.207,1.77-0.494,2.598-0.861c0.316,0.483,0.679,0.931,1.087,1.336v0.539c-1.023,0.2-1.993,0.536-2.906,0.976
			C647.254,308.096,646.994,307.43,646.668,306.801z M194.682,315.049v5.723c-2.509,0-5.017,0-7.526,0
			c2.455-1.327,4.148-3.868,4.297-6.818C192.472,314.435,193.549,314.815,194.682,315.049z M198.908,315.283
			c1.608-0.143,3.139-0.549,4.552-1.175c0.477,0.727,1.064,1.373,1.741,1.915l-1.728,1.461c-1.522,0-3.043,0-4.565,0V315.283z
			 M228.62,296.228l-3.131,2.647c-0.663,0-1.326,0-1.989,0v-2.199c1.622-0.14,3.165-0.546,4.589-1.176
			C228.253,295.751,228.428,295.996,228.62,296.228z M647.4,268.181l2.121-3.296c0.254,0.224,0.532,0.415,0.832,0.577v14.567
			c-2.058-1.126-4.419-1.768-6.931-1.768c-5.936,0-11.031,3.581-13.259,8.697c-1.864-1.245-4.102-1.974-6.512-1.974
			c-0.231,0-0.457,0.021-0.685,0.034v-1.903l-2.173-1.767l26.121-12.737C647.113,268.516,647.281,268.367,647.4,268.181z"/>
		<path style="fill:#25394D;" d="M336.023,267.745c-2.451,0.347-4.661,1.425-6.411,3.011v-32.454h-1.01
			c-0.403-4.163-3.91-7.419-8.179-7.419c-0.206,0-0.409,0.016-0.611,0.031c0.456-1.406,0.708-2.902,0.708-4.459
			c0-7.986-6.474-14.46-14.46-14.46c-7.986,0-14.46,6.474-14.46,14.46c0,0.23,0.024,0.455,0.034,0.683
			c-3.72,0.786-6.513,4.086-6.513,8.04c0,1.107,0.222,2.161,0.619,3.125h-2.813v-52.177h-57.028h-87.064v117.582l-8.62,7.009
			l-23.549-17.706c-0.147-0.111-0.317-0.186-0.498-0.221l-4.19-0.802c0.005-0.087,0.026-0.168,0.026-0.256
			c0-1.87-1.15-3.468-2.78-4.136l1.437-3.816c0.065-0.172,0.089-0.357,0.072-0.539l-3.025-31.561c-0.044-0.46-0.715-0.46-0.759,0
			l-3.025,31.593c-0.021,0.219,0.018,0.44,0.114,0.639l1.782,3.69c-1.62,0.672-2.76,2.267-2.76,4.13c0,0.072,0.018,0.139,0.021,0.21
			l-4.34,0.765c-0.181,0.032-0.352,0.105-0.501,0.213l-25.619,18.678c-0.373,0.272-0.031,0.849,0.387,0.653l28.729-13.489
			c0.2-0.094,0.369-0.24,0.492-0.424l2.237-3.366c0.284,0.269,0.608,0.491,0.955,0.678v18.06c-2.063,2.5-3.303,5.704-3.303,9.199
			c0,0.23,0.024,0.455,0.034,0.682c-3.72,0.786-6.513,4.086-6.513,8.04c0,3.624,2.348,6.693,5.603,7.787
			c-3.605,2.097-6.036,5.992-6.036,10.463c0,3.107,1.181,5.932,3.105,8.075c-0.463-0.051-0.932-0.083-1.409-0.083
			c-6.988,0-12.652,5.665-12.652,12.652c0,5.495,3.509,10.158,8.403,11.905c-1.35,2.198-2.142,4.775-2.142,7.544
			c0,1.816,0.349,3.546,0.961,5.147c-6.3,0.045-11.395,5.163-11.395,11.474c0,2.235,0.649,4.315,1.755,6.079
			c-1.419,0.328-2.896,0.6-4.45,0.797c-8.45,1.07-14.898,3.112-19.818,5.646v-9.713c3.986,0,7.972,0,11.958,0
			c0.626,0,1.252,0,1.879,0c0.71,0,1.313-0.602,1.313-1.313c0-0.128,0-0.256,0-0.384c4.167-0.634,7.364-4.222,7.364-8.567
			c0-4.792-3.885-8.677-8.677-8.677c-0.218,0-0.431,0.017-0.645,0.033c0.481-1.484,0.748-3.064,0.748-4.707
			c0-8.43-6.834-15.264-15.264-15.264s-15.264,6.834-15.264,15.264c0,0.243,0.025,0.48,0.036,0.72
			c-3.927,0.83-6.875,4.313-6.875,8.487c0,4.376,3.243,7.986,7.455,8.581c0,0.348,0,0.696,0,1.043c0,0.71,0.602,1.313,1.313,1.313
			c3.894,0,7.788,0,11.682,0c0.109,0,0.219,0,0.328,0v14.685c-1.958,1.216-3.628,2.513-5.047,3.849
			c-1.837-0.132-3.882-0.171-6.225-0.077c-21.188,0.847-19.391,18.956-19.391,18.956h17.652h13.012h2.649h84.279h1.452h0.302h3.418
			h9.671h43.478h42.86h25.135h11.612v-32.87h0.151v32.87h13.007h2.363h52.625h65.73h2.265h0.472h41.75h1.754h98.998h1.754h48.914
			c0,0-0.013-0.033-0.033-0.08c3.198,0.222,6.471-0.879,8.916-3.324c4.483-4.482,4.483-11.75,0-16.233
			c-1.129-1.129-2.436-1.973-3.83-2.533c-0.215-0.341-0.45-0.672-0.697-0.998c-0.07-3.605-1.469-7.19-4.22-9.941
			c-1.958-1.958-4.34-3.22-6.849-3.82c2.225-4.696,1.409-10.475-2.477-14.36c-4.941-4.941-12.952-4.941-17.893,0
			c-0.337,0.337-0.647,0.691-0.938,1.055c-0.155-2.876-1.318-5.708-3.515-7.906c-3.435-3.435-8.418-4.362-12.701-2.805v-28.956
			c3.216,0,6.432,0,9.648,0c0.593,0,1.186,0,1.78,0c0.672,0,1.244-0.57,1.244-1.244c0-0.121,0-0.242,0-0.364
			c3.948-0.601,6.976-4,6.976-8.116c0-4.539-3.68-8.219-8.219-8.219c-0.206,0-0.409,0.016-0.611,0.031
			c0.456-1.405,0.708-2.902,0.708-4.459c0-6.98-4.946-12.804-11.525-14.16v-44.115c0.3-0.162,0.578-0.353,0.832-0.577l2.121,3.296
			c0.119,0.185,0.287,0.334,0.485,0.431l28.527,13.91c0.415,0.202,0.765-0.37,0.396-0.647l-25.341-19.053
			c-0.147-0.111-0.317-0.186-0.498-0.221l-4.19-0.802c0.005-0.087,0.026-0.168,0.026-0.256c0-1.87-1.15-3.468-2.78-4.136
			l1.437-3.816c0.065-0.172,0.089-0.357,0.072-0.539l-3.025-31.561c-0.044-0.46-0.715-0.46-0.759,0l-3.025,31.594
			c-0.021,0.219,0.018,0.44,0.114,0.639l1.782,3.69c-1.62,0.672-2.761,2.267-2.761,4.13c0,0.072,0.018,0.139,0.021,0.21l-4.34,0.765
			c-0.181,0.032-0.352,0.105-0.501,0.213l-25.619,18.678c-0.373,0.272-0.031,0.849,0.387,0.653l28.729-13.489
			c0.2-0.094,0.37-0.24,0.492-0.424l2.237-3.366c0.284,0.269,0.608,0.491,0.955,0.678v43.881c-1.728,0.153-3.362,0.616-4.861,1.324
			c-1.21-0.702-2.612-1.11-4.112-1.11c-0.206,0-0.409,0.016-0.611,0.031c0.456-1.405,0.708-2.902,0.708-4.459
			c0-7.986-6.474-14.46-14.46-14.46c-7.986,0-14.46,6.474-14.46,14.46c0,0.23,0.024,0.455,0.034,0.682
			c-1.782,0.376-3.347,1.333-4.498,2.659l-4.591-3.881v-89.155l-43.345-38.209h-58.968l-40.983,38.209v23.791
			c-3.532,2.024-5.917,5.822-5.917,10.185c0,1.753,0.395,3.41,1.084,4.904c-0.98-0.305-2.022-0.469-3.102-0.469
			c-4.79,0-8.815,3.233-10.038,7.633c-0.858-0.413-1.767-0.737-2.723-0.939 M47.562,406.777v-5.792
			c1.842-0.159,3.585-0.65,5.182-1.405c0.157,3.114,1.944,5.797,4.536,7.197c-3.055,0-6.109,0-9.164,0
			C47.931,406.777,47.747,406.777,47.562,406.777z M35.296,403.306c1.982-0.592,3.664-1.871,4.774-3.564
			c1.503,0.666,3.132,1.095,4.844,1.242v2.322C41.708,403.306,38.502,403.306,35.296,403.306z M551.092,351.529l-1.622-1.371
			c0.449,0,0.899,0,1.348,0c0.091,0,0.183,0,0.274,0V351.529z M531.344,334.836c0.592,0,1.185,0,1.777,0
			c-0.233,0.306-0.448,0.626-0.637,0.964L531.344,334.836z M537.463,331.884c-0.435,0.121-0.855,0.277-1.258,0.464
			c-2.223,0-4.446,0-6.669,0c-0.175,0-0.35,0-0.525,0v-5.487c1.745-0.15,3.397-0.616,4.909-1.331
			C534.052,328.167,535.419,330.476,537.463,331.884z M102.553,338.978c-0.913-0.44-1.884-0.776-2.906-0.976v-0.539
			c0.408-0.405,0.771-0.854,1.087-1.336c0.828,0.367,1.697,0.654,2.598,0.861C103.006,337.616,102.746,338.283,102.553,338.978z
			 M558.547,344.14c0.148,2.95,1.842,5.491,4.297,6.818c-2.509,0-5.017,0-7.526,0v-5.723
			C556.451,345.001,557.528,344.622,558.547,344.14z M551.092,347.67c-1.522,0-3.043,0-4.565,0l-1.728-1.461
			c0.676-0.542,1.264-1.188,1.741-1.915c1.414,0.626,2.944,1.032,4.552,1.175V347.67z M521.912,325.685
			c1.424,0.63,2.967,1.037,4.589,1.177v2.199c-0.663,0-1.326,0-1.989,0l-3.131-2.647
			C521.572,326.182,521.747,325.937,521.912,325.685z M103.085,298.799l26.121,12.737l-2.174,1.767v1.903
			c-0.228-0.013-0.453-0.034-0.685-0.034c-2.41,0-4.648,0.728-6.512,1.974c-2.227-5.117-7.322-8.697-13.259-8.697
			c-2.512,0-4.873,0.642-6.931,1.769v-14.567c0.3-0.162,0.578-0.353,0.832-0.577l2.121,3.296
			C102.719,298.553,102.887,298.702,103.085,298.799z"/>
	</g>
	<g>
		<g>
			<g>
				<g>
					<rect x="406.33" y="163.628" style="fill:#FFFFFF;" width="4.226" height="138.868"/>
					<g>
						<path style="fill:#ABBCCE;" d="M412.916,162.014c0,2.47-2.003,4.473-4.473,4.473c-2.47,0-4.473-2.003-4.473-4.473
							c0-2.47,2.002-4.473,4.473-4.473C410.914,157.541,412.916,159.544,412.916,162.014z"/>
						<path style="fill:#FFFFFF;" d="M407.422,159.314l-2.473-5.12c-0.096-0.198-0.135-0.419-0.114-0.639l3.025-31.594
							c0.044-0.46,0.715-0.46,0.759,0l3.025,31.561c0.018,0.183-0.007,0.367-0.072,0.539l-1.94,5.153
							C409.26,160.205,407.882,160.267,407.422,159.314z"/>
						<path style="fill:#FFFFFF;" d="M406.286,163.885l-3.147,4.736c-0.122,0.184-0.292,0.33-0.492,0.424l-28.729,13.489
							c-0.418,0.196-0.759-0.381-0.387-0.653l25.619-18.678c0.148-0.108,0.32-0.181,0.501-0.213l5.423-0.955
							C406.117,161.85,406.872,163.004,406.286,163.885z"/>
						<path style="fill:#FFFFFF;" d="M410.433,163.87l3.077,4.782c0.119,0.185,0.287,0.334,0.485,0.431l28.527,13.91
							c0.415,0.202,0.765-0.37,0.396-0.647l-25.341-19.053c-0.147-0.111-0.317-0.186-0.498-0.221l-5.408-1.035
							C410.632,161.838,409.861,162.98,410.433,163.87z"/>
						<path style="fill:#25394D;" d="M410.058,162.014c0,0.891-0.723,1.614-1.614,1.614c-0.891,0-1.614-0.723-1.614-1.614
							c0-0.891,0.723-1.614,1.614-1.614C409.335,160.4,410.058,161.122,410.058,162.014z"/>
					</g>
				</g>
				<g>
					<rect x="621.399" y="269.644" style="fill:#FFFFFF;" width="4.226" height="138.868"/>
					<g>
						<path style="fill:#ABBCCE;" d="M627.984,268.03c0,2.47-2.003,4.473-4.473,4.473c-2.47,0-4.473-2.002-4.473-4.473
							c0-2.47,2.003-4.473,4.473-4.473C625.982,263.557,627.984,265.56,627.984,268.03z"/>
						<path style="fill:#FFFFFF;" d="M622.49,265.331l-2.473-5.121c-0.096-0.198-0.135-0.419-0.114-0.639l3.025-31.593
							c0.044-0.46,0.715-0.46,0.759,0l3.025,31.561c0.018,0.183-0.007,0.367-0.072,0.539l-1.94,5.153
							C624.328,266.221,622.951,266.283,622.49,265.331z"/>
						<path style="fill:#FFFFFF;" d="M621.354,269.901l-3.147,4.736c-0.122,0.184-0.292,0.33-0.492,0.424l-28.729,13.489
							c-0.418,0.196-0.76-0.381-0.387-0.653l25.619-18.678c0.148-0.108,0.32-0.181,0.501-0.213l5.423-0.955
							C621.185,267.866,621.94,269.02,621.354,269.901z"/>
						<path style="fill:#FFFFFF;" d="M625.501,269.887l3.077,4.782c0.119,0.185,0.287,0.334,0.485,0.431l28.527,13.91
							c0.415,0.202,0.765-0.37,0.396-0.647l-25.341-19.053c-0.147-0.111-0.317-0.186-0.498-0.221l-5.408-1.035
							C625.701,267.854,624.929,268.997,625.501,269.887z"/>
						<path style="fill:#25394D;" d="M625.126,268.03c0,0.891-0.723,1.614-1.614,1.614c-0.891,0-1.614-0.723-1.614-1.614
							c0-0.891,0.723-1.614,1.614-1.614C624.403,266.416,625.126,267.139,625.126,268.03z"/>
					</g>
				</g>
				<g>
					<rect x="165.727" y="292.494" style="fill:#FFFFFF;" width="4.226" height="138.868"/>
					<g>
						<path style="fill:#ABBCCE;" d="M172.313,290.88c0,2.47-2.002,4.473-4.473,4.473s-4.473-2.002-4.473-4.473
							c0-2.47,2.002-4.473,4.473-4.473S172.313,288.41,172.313,290.88z"/>
						<path style="fill:#FFFFFF;" d="M166.819,288.181l-2.473-5.12c-0.096-0.198-0.135-0.419-0.114-0.639l3.025-31.593
							c0.044-0.46,0.715-0.46,0.759,0l3.025,31.561c0.018,0.183-0.007,0.367-0.072,0.54l-1.94,5.153
							C168.656,289.072,167.279,289.133,166.819,288.181z"/>
						<path style="fill:#FFFFFF;" d="M165.683,292.751l-3.147,4.736c-0.122,0.183-0.292,0.33-0.492,0.424L133.315,311.4
							c-0.418,0.196-0.76-0.381-0.387-0.653l25.619-18.678c0.148-0.108,0.32-0.181,0.501-0.213l5.423-0.955
							C165.513,290.716,166.268,291.87,165.683,292.751z"/>
						<path style="fill:#FFFFFF;" d="M169.83,292.737l3.077,4.782c0.119,0.185,0.287,0.334,0.485,0.431l28.527,13.91
							c0.415,0.202,0.765-0.37,0.396-0.647l-25.341-19.053c-0.147-0.111-0.317-0.186-0.498-0.221l-5.408-1.035
							C170.029,290.704,169.257,291.847,169.83,292.737z"/>
						<circle style="fill:#25394D;" cx="167.84" cy="290.88" r="1.614"/>
					</g>
				</g>
			</g>
			<g>
				<g>
					
						<ellipse transform="matrix(0.7071 -0.7071 0.7071 0.7071 -54.0275 346.0708)" style="fill:#25394D;" cx="390.731" cy="238.252" rx="8.22" ry="8.22"/>
					
						<ellipse transform="matrix(0.2312 -0.9729 0.9729 0.2312 69.8651 539.6206)" style="fill:#25394D;" cx="376.368" cy="225.604" rx="14.46" ry="14.46"/>
					
						<ellipse transform="matrix(0.1598 -0.9872 0.9872 0.1598 74.2319 555.8653)" style="fill:#25394D;" cx="363.649" cy="234.326" rx="8.22" ry="8.219"/>
					<path style="fill:#FFFFFF;" d="M377.623,280.129h-2.509v-55.46c0-0.693,0.562-1.255,1.255-1.255l0,0
						c0.693,0,1.254,0.562,1.254,1.255V280.129z"/>
					<g>
						<g>
							<path style="fill:#FFFFFF;" d="M376.368,247.975c4.194,0,8.389,0,12.583,0c0.593,0,1.186,0,1.78,0
								c0.672,0,1.244-0.57,1.244-1.244c0-2.365,0-4.73,0-7.095c0-1.601-2.488-1.603-2.488,0c0,2.365,0,4.73,0,7.095
								c0.415-0.415,0.829-0.829,1.244-1.244c-4.194,0-8.389,0-12.583,0c-0.593,0-1.186,0-1.779,0
								C374.767,245.488,374.765,247.975,376.368,247.975L376.368,247.975z"/>
						</g>
					</g>
					<g>
						<g>
							<path style="fill:#FFFFFF;" d="M376.368,242.2c-3.689,0-7.378,0-11.067,0c-0.522,0-1.043,0-1.565,0
								c0.415,0.415,0.829,0.829,1.244,1.244c0-1.615,0-3.23,0-4.845c0-1.601-2.488-1.603-2.488,0c0,1.615,0,3.23,0,4.845
								c0,0.672,0.57,1.244,1.244,1.244c3.689,0,7.378,0,11.067,0c0.522,0,1.043,0,1.565,0
								C377.969,244.687,377.971,242.2,376.368,242.2L376.368,242.2z"/>
						</g>
					</g>
				</g>
				<g>
					
						<ellipse transform="matrix(0.9247 -0.3808 0.3808 0.9247 -113.0399 98.0353)" style="fill:#25394D;" cx="191.247" cy="334.705" rx="8.219" ry="8.22"/>
					
						<ellipse transform="matrix(0.6802 -0.733 0.733 0.6802 -179.5044 232.6358)" style="fill:#25394D;" cx="176.884" cy="322.057" rx="14.46" ry="14.46"/>
					
						<ellipse transform="matrix(0.2306 -0.9731 0.9731 0.2306 -195.5527 414.2555)" style="fill:#25394D;" cx="164.165" cy="330.779" rx="8.22" ry="8.22"/>
					<path style="fill:#FFFFFF;" d="M178.139,376.582h-2.509v-55.46c0-0.693,0.562-1.254,1.255-1.254l0,0
						c0.693,0,1.255,0.562,1.255,1.254V376.582z"/>
					<g>
						<g>
							<path style="fill:#FFFFFF;" d="M176.884,344.428c4.194,0,8.389,0,12.583,0c0.593,0,1.186,0,1.78,0
								c0.672,0,1.244-0.57,1.244-1.244c0-2.365,0-4.73,0-7.095c0-1.601-2.488-1.603-2.488,0c0,2.365,0,4.73,0,7.095
								c0.415-0.415,0.829-0.829,1.244-1.244c-4.194,0-8.389,0-12.583,0c-0.593,0-1.186,0-1.78,0
								C175.283,341.941,175.281,344.428,176.884,344.428L176.884,344.428z"/>
						</g>
					</g>
					<g>
						<g>
							<path style="fill:#FFFFFF;" d="M176.884,338.653c-3.689,0-7.378,0-11.067,0c-0.522,0-1.044,0-1.565,0
								c0.415,0.415,0.829,0.829,1.244,1.244c0-1.615,0-3.23,0-4.845c0-1.601-2.487-1.603-2.487,0c0,1.615,0,3.23,0,4.845
								c0,0.672,0.57,1.244,1.244,1.244c3.689,0,7.378,0,11.067,0c0.522,0,1.043,0,1.565,0
								C178.485,341.14,178.487,338.653,176.884,338.653L176.884,338.653z"/>
						</g>
					</g>
				</g>
				<g>
					
						<ellipse transform="matrix(0.2306 -0.9731 0.9731 0.2306 155.6944 845.4241)" style="fill:#25394D;" cx="612.425" cy="324.263" rx="8.22" ry="8.22"/>
					
						<ellipse transform="matrix(0.1609 -0.987 0.987 0.1609 194.2752 851.744)" style="fill:#25394D;" cx="598.063" cy="311.615" rx="14.46" ry="14.46"/>
					
						<ellipse transform="matrix(0.7071 -0.7071 0.7071 0.7071 -55.0696 507.7253)" style="fill:#25394D;" cx="585.344" cy="320.338" rx="8.22" ry="8.22"/>
					<path style="fill:#FFFFFF;" d="M599.317,366.14h-2.509v-55.46c0-0.693,0.562-1.255,1.255-1.255l0,0
						c0.693,0,1.255,0.562,1.255,1.255V366.14z"/>
					<g>
						<g>
							<path style="fill:#FFFFFF;" d="M598.063,333.986c4.194,0,8.389,0,12.583,0c0.593,0,1.186,0,1.78,0
								c0.672,0,1.244-0.57,1.244-1.244c0-2.365,0-4.73,0-7.095c0-1.601-2.487-1.603-2.487,0c0,2.365,0,4.73,0,7.095
								c0.415-0.415,0.829-0.829,1.244-1.244c-4.194,0-8.389,0-12.583,0c-0.593,0-1.186,0-1.78,0
								C596.462,331.499,596.459,333.986,598.063,333.986L598.063,333.986z"/>
						</g>
					</g>
					<g>
						<g>
							<path style="fill:#FFFFFF;" d="M598.063,328.211c-3.689,0-7.378,0-11.067,0c-0.522,0-1.043,0-1.565,0
								c0.415,0.415,0.829,0.829,1.244,1.244c0-1.615,0-3.23,0-4.845c0-1.601-2.487-1.603-2.487,0c0,1.615,0,3.23,0,4.845
								c0,0.672,0.57,1.244,1.244,1.244c3.689,0,7.378,0,11.067,0c0.522,0,1.043,0,1.565,0
								C599.663,330.698,599.666,328.211,598.063,328.211L598.063,328.211z"/>
						</g>
					</g>
				</g>
				<g>
					<polygon style="fill:#FFFFFF;" points="209.144,362.47 209.144,219.365 296.208,219.365 296.208,364.534 					"/>
					<rect x="296.208" y="219.365" style="fill:#25394D;" width="57.028" height="145.169"/>
					<g>
						<rect x="256.898" y="233.386" style="fill:#25394D;" width="5.5" height="7.435"/>
						<rect x="256.898" y="248.712" style="fill:#25394D;" width="5.5" height="7.435"/>
						<rect x="256.898" y="264.039" style="fill:#25394D;" width="5.5" height="7.435"/>
						<rect x="256.898" y="279.365" style="fill:#25394D;" width="5.5" height="7.435"/>
						<rect x="275.633" y="233.386" style="fill:#25394D;" width="5.5" height="7.435"/>
						<rect x="275.633" y="248.712" style="fill:#25394D;" width="5.5" height="7.435"/>
						<rect x="275.633" y="264.039" style="fill:#25394D;" width="5.5" height="7.435"/>
						<rect x="275.633" y="279.365" style="fill:#25394D;" width="5.5" height="7.435"/>
						<rect x="238.17" y="233.386" style="fill:#25394D;" width="5.5" height="7.435"/>
						<rect x="238.17" y="248.712" style="fill:#25394D;" width="5.5" height="7.435"/>
						<rect x="238.17" y="264.039" style="fill:#25394D;" width="5.5" height="7.435"/>
						<rect x="238.17" y="279.365" style="fill:#25394D;" width="5.5" height="7.435"/>
						<rect x="218.813" y="233.386" style="fill:#25394D;" width="5.5" height="7.435"/>
						<rect x="218.813" y="248.712" style="fill:#25394D;" width="5.5" height="7.435"/>
						<rect x="218.813" y="264.039" style="fill:#25394D;" width="5.5" height="7.435"/>
						<rect x="218.813" y="279.365" style="fill:#25394D;" width="5.5" height="7.435"/>
						<rect x="256.898" y="295.367" style="fill:#25394D;" width="5.5" height="7.435"/>
						<rect x="275.633" y="295.367" style="fill:#25394D;" width="5.5" height="7.435"/>
						<rect x="238.17" y="295.367" style="fill:#25394D;" width="5.5" height="7.435"/>
						<rect x="218.813" y="295.367" style="fill:#25394D;" width="5.5" height="7.435"/>
					</g>
					<g>
						<rect x="341.626" y="233.386" style="fill:#87B3D8;" width="5.5" height="7.435"/>
						<rect x="341.626" y="248.712" style="fill:#87B3D8;" width="5.5" height="7.435"/>
						<rect x="341.626" y="264.039" style="fill:#87B3D8;" width="5.5" height="7.435"/>
						<rect x="341.626" y="279.365" style="fill:#87B3D8;" width="5.5" height="7.435"/>
						<rect x="322.898" y="233.386" style="fill:#87B3D8;" width="5.5" height="7.435"/>
						<rect x="322.898" y="248.712" style="fill:#87B3D8;" width="5.5" height="7.435"/>
						<rect x="322.898" y="264.039" style="fill:#87B3D8;" width="5.5" height="7.435"/>
						<rect x="322.898" y="279.365" style="fill:#87B3D8;" width="5.5" height="7.435"/>
						<rect x="303.541" y="233.386" style="fill:#87B3D8;" width="5.5" height="7.435"/>
						<rect x="303.541" y="248.712" style="fill:#87B3D8;" width="5.5" height="7.435"/>
						<rect x="303.541" y="264.039" style="fill:#87B3D8;" width="5.5" height="7.435"/>
						<rect x="303.541" y="279.365" style="fill:#87B3D8;" width="5.5" height="7.435"/>
						<rect x="341.626" y="295.367" style="fill:#87B3D8;" width="5.5" height="7.435"/>
						<rect x="322.898" y="295.367" style="fill:#87B3D8;" width="5.5" height="7.435"/>
						<rect x="303.541" y="295.367" style="fill:#87B3D8;" width="5.5" height="7.435"/>
					</g>
				</g>
				<g>
					<g>
						<circle style="fill:#62A84B;" cx="179.727" cy="362.243" r="20.153"/>
						<circle style="fill:#62A84B;" cx="203.101" cy="340.256" r="18.631"/>
						
							<ellipse transform="matrix(0.7071 -0.7071 0.7071 0.7071 -187.4992 229.1816)" style="fill:#62A84B;" cx="182.897" cy="340.922" rx="10.427" ry="10.427"/>
						<circle style="fill:#62A84B;" cx="173.118" cy="380.091" r="9.779"/>
						<circle style="fill:#62A84B;" cx="216.94" cy="319.863" r="17.06"/>
						<circle style="fill:#62A84B;" cx="196.655" cy="326.06" r="11.739"/>
						<circle style="fill:#62A84B;" cx="167.62" cy="349.03" r="12.107"/>
						<circle style="fill:#62A84B;" cx="157.209" cy="369.674" r="12.652"/>
						<circle style="fill:#62A84B;" cx="165.272" cy="389.123" r="14.455"/>
						
							<ellipse transform="matrix(0.7071 -0.7071 0.7071 0.7071 -242.4256 226.2218)" style="fill:#62A84B;" cx="151.861" cy="405.745" rx="11.478" ry="11.478"/>
					</g>
				</g>
				<g>
					<g>
						<circle style="fill:#62A84B;" cx="420.146" cy="292.081" r="20.153"/>
						<circle style="fill:#62A84B;" cx="443.52" cy="270.094" r="18.631"/>
						
							<ellipse transform="matrix(0.9229 -0.3851 0.3851 0.9229 -71.6238 183.9167)" style="fill:#62A84B;" cx="423.317" cy="270.76" rx="10.427" ry="10.427"/>
						<circle style="fill:#62A84B;" cx="413.538" cy="309.928" r="9.779"/>
						<circle style="fill:#62A84B;" cx="457.36" cy="249.7" r="17.06"/>
						<circle style="fill:#62A84B;" cx="437.074" cy="255.898" r="11.739"/>
						
							<ellipse transform="matrix(0.1608 -0.987 0.987 0.1608 67.1928 636.759)" style="fill:#62A84B;" cx="408.04" cy="278.867" rx="12.107" ry="12.107"/>
						<circle style="fill:#62A84B;" cx="397.629" cy="299.512" r="12.652"/>
						<circle style="fill:#62A84B;" cx="405.692" cy="318.961" r="14.455"/>
						<circle style="fill:#62A84B;" cx="392.281" cy="335.582" r="11.478"/>
					</g>
				</g>
				<g>
					<circle style="fill:#25394D;" cx="630.548" cy="410.821" r="20.153"/>
					<circle style="fill:#25394D;" cx="599.036" cy="402.614" r="18.631"/>
					<path style="fill:#25394D;" d="M606.419,396.173c4.072,4.072,10.674,4.072,14.747,0c4.072-4.072,4.072-10.674,0-14.746
						c-4.072-4.072-10.674-4.072-14.747,0C602.347,385.498,602.347,392.101,606.419,396.173z"/>
					<circle style="fill:#25394D;" cx="647.841" cy="418.769" r="9.779"/>
					<circle style="fill:#25394D;" cx="574.829" cy="397.98" r="17.06"/>
					<circle style="fill:#25394D;" cx="593.555" cy="388.018" r="11.739"/>
					<circle style="fill:#25394D;" cx="629.765" cy="392.917" r="12.107"/>
					<circle style="fill:#25394D;" cx="651.725" cy="400.153" r="12.652"/>
					<path style="fill:#25394D;" d="M649.555,429.828c5.645,5.645,14.797,5.645,20.442,0c5.645-5.645,5.645-14.797,0-20.442
						c-5.645-5.645-14.797-5.645-20.442,0C643.91,415.031,643.91,424.183,649.555,429.828z"/>
					<path style="fill:#25394D;" d="M652.468,438.243c5.645,5.645,14.797,5.645,20.442,0c5.645-5.645,5.645-14.797,0-20.442
						c-5.645-5.645-14.797-5.645-20.442,0C646.823,423.446,646.823,432.598,652.468,438.243z"/>
					<path style="fill:#25394D;" d="M634.474,438.243c5.645,5.645,14.797,5.645,20.442,0c5.645-5.645,5.645-14.797,0-20.442
						c-5.645-5.645-14.797-5.645-20.442,0C628.829,423.446,628.829,432.598,634.474,438.243z"/>
					<path style="fill:#25394D;" d="M662.511,439.091c4.482,4.483,11.75,4.483,16.233,0c4.483-4.482,4.483-11.75,0-16.233
						c-4.483-4.482-11.75-4.482-16.233,0C658.028,427.341,658.028,434.608,662.511,439.091z"/>
				</g>
				<g>
					<polygon style="fill:#7CCCCC;" points="222.383,292.092 197.339,312.453 197.339,405.321 222.383,405.321 247.426,405.321 
						247.426,312.453 					"/>
					<polygon style="fill:#25394D;" points="222.383,292.092 247.426,312.453 287.774,312.453 260.035,292.092 					"/>
					<rect x="247.426" y="312.453" style="fill:#2F4D65;" width="40.348" height="92.868"/>
				</g>
				<path style="fill:#2B4127;" d="M102.209,442.495c0,0-2.991-25.003,35.478-29.875c38.469-4.872,33.739-51.69,79.304-47.864
					v77.739H102.209z"/>
				<path style="fill:#385530;" d="M207.32,442.495H84.557c0,0-1.796-18.11,19.391-18.956c21.739-0.869,18.956,9.217,42.783,6.783
					c23.826-2.435,25.217-36.174,59.478-34.261L207.32,442.495z"/>
				<g>
					<g>
						<polygon style="fill:#D1E6D4;" points="472.235,183.712 431.252,221.922 431.252,438.321 472.235,438.321 513.219,438.321 
							513.219,221.922 						"/>
						<circle style="fill:#A4B8A5;" cx="472.575" cy="235.184" r="23.128"/>
						<circle style="fill:#384945;" cx="473.717" cy="235.184" r="22.087"/>
						<g>
							<rect x="471.12" y="207.366" style="fill:#D1E6D4;" width="2.911" height="55.474"/>
							
								<rect x="471.201" y="207.366" transform="matrix(6.123234e-17 -1 1 6.123234e-17 237.553 707.7592)" style="fill:#D1E6D4;" width="2.911" height="55.475"/>
							
								<rect x="471.12" y="207.447" transform="matrix(0.7071 -0.7071 0.7071 0.7071 -27.8861 403.045)" style="fill:#D1E6D4;" width="2.911" height="55.475"/>
							
								<rect x="471.12" y="207.366" transform="matrix(-0.7071 -0.7071 0.7071 -0.7071 640.4933 735.5073)" style="fill:#D1E6D4;" width="2.911" height="55.475"/>
						</g>
						<g>
							<g>
								<g>
									<g>
										<g>
											<rect x="441.33" y="269.795" style="fill:#A4B8A5;" width="5.337" height="7.925"/>
											<rect x="452.793" y="269.795" style="fill:#A4B8A5;" width="5.337" height="7.925"/>
											<rect x="464.256" y="269.795" style="fill:#A4B8A5;" width="5.337" height="7.925"/>
											<rect x="475.719" y="269.795" style="fill:#A4B8A5;" width="5.337" height="7.925"/>
											<rect x="487.182" y="269.795" style="fill:#A4B8A5;" width="5.337" height="7.925"/>
											<rect x="498.645" y="269.795" style="fill:#A4B8A5;" width="5.337" height="7.925"/>
										</g>
									</g>
								</g>
								<g>
									<g>
										<rect x="442.574" y="269.795" style="fill:#384945;" width="5.337" height="7.925"/>
										<rect x="454.036" y="269.795" style="fill:#384945;" width="5.337" height="7.925"/>
										<rect x="465.499" y="269.795" style="fill:#384945;" width="5.337" height="7.925"/>
										<rect x="476.962" y="269.795" style="fill:#384945;" width="5.337" height="7.925"/>
										<rect x="488.425" y="269.795" style="fill:#384945;" width="5.337" height="7.925"/>
										<rect x="499.888" y="269.795" style="fill:#384945;" width="5.337" height="7.925"/>
									</g>
								</g>
							</g>
							<g>
								<g>
									<g>
										<g>
											<rect x="441.33" y="285.887" style="fill:#A4B8A5;" width="5.337" height="7.925"/>
											<rect x="452.793" y="285.887" style="fill:#A4B8A5;" width="5.337" height="7.925"/>
											<rect x="464.256" y="285.887" style="fill:#A4B8A5;" width="5.337" height="7.925"/>
											<rect x="475.719" y="285.887" style="fill:#A4B8A5;" width="5.337" height="7.925"/>
											<rect x="487.182" y="285.887" style="fill:#A4B8A5;" width="5.337" height="7.925"/>
											<rect x="498.645" y="285.887" style="fill:#A4B8A5;" width="5.337" height="7.925"/>
										</g>
									</g>
								</g>
								<g>
									<g>
										<rect x="442.574" y="285.887" style="fill:#384945;" width="5.337" height="7.925"/>
										<rect x="454.036" y="285.887" style="fill:#384945;" width="5.337" height="7.925"/>
										<rect x="465.499" y="285.887" style="fill:#384945;" width="5.337" height="7.925"/>
										<rect x="476.962" y="285.887" style="fill:#384945;" width="5.337" height="7.925"/>
										<rect x="488.425" y="285.887" style="fill:#384945;" width="5.337" height="7.925"/>
										<rect x="499.888" y="285.887" style="fill:#384945;" width="5.337" height="7.925"/>
									</g>
								</g>
							</g>
							<g>
								<g>
									<g>
										<g>
											<rect x="441.33" y="301.98" style="fill:#A4B8A5;" width="5.337" height="7.925"/>
											<rect x="452.793" y="301.98" style="fill:#A4B8A5;" width="5.337" height="7.925"/>
											<rect x="464.256" y="301.98" style="fill:#A4B8A5;" width="5.337" height="7.925"/>
											<rect x="475.719" y="301.98" style="fill:#A4B8A5;" width="5.337" height="7.925"/>
											<rect x="487.182" y="301.98" style="fill:#A4B8A5;" width="5.337" height="7.925"/>
											<rect x="498.645" y="301.98" style="fill:#A4B8A5;" width="5.337" height="7.925"/>
										</g>
									</g>
								</g>
								<g>
									<g>
										<rect x="442.574" y="301.98" style="fill:#384945;" width="5.337" height="7.925"/>
										<rect x="454.036" y="301.98" style="fill:#384945;" width="5.337" height="7.925"/>
										<rect x="465.499" y="301.98" style="fill:#384945;" width="5.337" height="7.925"/>
										<rect x="476.962" y="301.98" style="fill:#384945;" width="5.337" height="7.925"/>
										<rect x="488.425" y="301.98" style="fill:#384945;" width="5.337" height="7.925"/>
										<rect x="499.888" y="301.98" style="fill:#384945;" width="5.337" height="7.925"/>
									</g>
								</g>
							</g>
							<g>
								<g>
									<g>
										<g>
											<rect x="441.33" y="318.072" style="fill:#A4B8A5;" width="5.337" height="7.925"/>
											<rect x="452.793" y="318.072" style="fill:#A4B8A5;" width="5.337" height="7.925"/>
											<rect x="464.256" y="318.072" style="fill:#A4B8A5;" width="5.337" height="7.925"/>
											<rect x="475.719" y="318.072" style="fill:#A4B8A5;" width="5.337" height="7.925"/>
											<rect x="487.182" y="318.072" style="fill:#A4B8A5;" width="5.337" height="7.925"/>
											<rect x="498.645" y="318.072" style="fill:#A4B8A5;" width="5.337" height="7.925"/>
										</g>
									</g>
								</g>
								<g>
									<g>
										<rect x="442.574" y="318.072" style="fill:#384945;" width="5.337" height="7.925"/>
										<rect x="454.036" y="318.072" style="fill:#384945;" width="5.337" height="7.925"/>
										<rect x="465.499" y="318.072" style="fill:#384945;" width="5.337" height="7.925"/>
										<rect x="476.962" y="318.072" style="fill:#384945;" width="5.337" height="7.925"/>
										<rect x="488.425" y="318.072" style="fill:#384945;" width="5.337" height="7.925"/>
										<rect x="499.888" y="318.072" style="fill:#384945;" width="5.337" height="7.925"/>
									</g>
								</g>
							</g>
							<g>
								<g>
									<g>
										<g>
											<rect x="441.33" y="334.165" style="fill:#A4B8A5;" width="5.337" height="7.925"/>
											<rect x="452.793" y="334.165" style="fill:#A4B8A5;" width="5.337" height="7.925"/>
											<rect x="464.256" y="334.165" style="fill:#A4B8A5;" width="5.337" height="7.925"/>
											<rect x="475.719" y="334.165" style="fill:#A4B8A5;" width="5.337" height="7.925"/>
											<rect x="487.182" y="334.165" style="fill:#A4B8A5;" width="5.337" height="7.925"/>
											<rect x="498.645" y="334.165" style="fill:#A4B8A5;" width="5.337" height="7.925"/>
										</g>
									</g>
								</g>
								<g>
									<g>
										<rect x="442.574" y="334.165" style="fill:#384945;" width="5.337" height="7.925"/>
										<rect x="454.036" y="334.165" style="fill:#384945;" width="5.337" height="7.925"/>
										<rect x="465.499" y="334.165" style="fill:#384945;" width="5.337" height="7.925"/>
										<rect x="476.962" y="334.165" style="fill:#384945;" width="5.337" height="7.925"/>
										<rect x="488.425" y="334.165" style="fill:#384945;" width="5.337" height="7.925"/>
										<rect x="499.888" y="334.165" style="fill:#384945;" width="5.337" height="7.925"/>
									</g>
								</g>
							</g>
							<g>
								<g>
									<g>
										<g>
											<rect x="441.33" y="350.257" style="fill:#A4B8A5;" width="5.337" height="7.925"/>
											<rect x="452.793" y="350.257" style="fill:#A4B8A5;" width="5.337" height="7.925"/>
											<rect x="464.256" y="350.257" style="fill:#A4B8A5;" width="5.337" height="7.925"/>
											<rect x="475.719" y="350.257" style="fill:#A4B8A5;" width="5.337" height="7.925"/>
											<rect x="487.182" y="350.257" style="fill:#A4B8A5;" width="5.337" height="7.925"/>
											<rect x="498.645" y="350.257" style="fill:#A4B8A5;" width="5.337" height="7.925"/>
										</g>
									</g>
								</g>
								<g>
									<g>
										<rect x="442.574" y="350.257" style="fill:#384945;" width="5.337" height="7.925"/>
										<rect x="454.036" y="350.257" style="fill:#384945;" width="5.337" height="7.925"/>
										<rect x="465.499" y="350.257" style="fill:#384945;" width="5.337" height="7.925"/>
										<rect x="476.962" y="350.257" style="fill:#384945;" width="5.337" height="7.925"/>
										<rect x="488.425" y="350.257" style="fill:#384945;" width="5.337" height="7.925"/>
										<rect x="499.888" y="350.257" style="fill:#384945;" width="5.337" height="7.925"/>
									</g>
								</g>
							</g>
							<g>
								<g>
									<g>
										<g>
											<rect x="441.33" y="366.35" style="fill:#A4B8A5;" width="5.337" height="7.925"/>
											<rect x="452.793" y="366.35" style="fill:#A4B8A5;" width="5.337" height="7.925"/>
											<rect x="464.256" y="366.35" style="fill:#A4B8A5;" width="5.337" height="7.925"/>
											<rect x="475.719" y="366.35" style="fill:#A4B8A5;" width="5.337" height="7.925"/>
											<rect x="487.182" y="366.35" style="fill:#A4B8A5;" width="5.337" height="7.925"/>
											<rect x="498.645" y="366.35" style="fill:#A4B8A5;" width="5.337" height="7.925"/>
										</g>
									</g>
								</g>
								<g>
									<g>
										<rect x="442.574" y="366.35" style="fill:#384945;" width="5.337" height="7.925"/>
										<rect x="454.036" y="366.35" style="fill:#384945;" width="5.337" height="7.925"/>
										<rect x="465.499" y="366.35" style="fill:#384945;" width="5.337" height="7.925"/>
										<rect x="476.962" y="366.35" style="fill:#384945;" width="5.337" height="7.925"/>
										<rect x="488.425" y="366.35" style="fill:#384945;" width="5.337" height="7.925"/>
										<rect x="499.888" y="366.35" style="fill:#384945;" width="5.337" height="7.925"/>
									</g>
								</g>
							</g>
						</g>
					</g>
					<polygon style="fill:#2B4127;" points="472.235,183.712 513.219,221.922 574.548,221.922 531.204,183.712 					"/>
					<g>
						<polygon style="fill:#5B7957;" points="574.548,221.922 574.548,352.279 623.292,352.279 623.292,428.048 513.219,428.048 
							513.219,221.922 						"/>
						<g>
							<g>
								<g>
									<g>
										<g>
											<g>
												<g>
													<rect x="524.613" y="269.795" style="fill:#4A6645;" width="5.337" height="7.925"/>
												</g>
											</g>
										</g>
										<g>
											<g>
												<g>
													<rect x="523.794" y="269.795" style="fill:#D1E6D4;" width="5.337" height="7.925"/>
												</g>
											</g>
										</g>
									</g>
								</g>
								<g>
									<g>
										<g>
											<g>
												<g>
													<rect x="541.191" y="269.795" style="fill:#4A6645;" width="5.337" height="7.925"/>
												</g>
											</g>
										</g>
										<g>
											<g>
												<g>
													<rect x="540.372" y="269.795" style="fill:#D1E6D4;" width="5.337" height="7.925"/>
												</g>
											</g>
										</g>
									</g>
								</g>
								<g>
									<g>
										<g>
											<g>
												<g>
													<rect x="557.768" y="269.795" style="fill:#4A6645;" width="5.337" height="7.925"/>
												</g>
											</g>
										</g>
										<g>
											<g>
												<g>
													<rect x="556.95" y="269.795" style="fill:#D1E6D4;" width="5.337" height="7.925"/>
												</g>
											</g>
										</g>
									</g>
								</g>
							</g>
							<g>
								<g>
									<g>
										<g>
											<g>
												<g>
													<rect x="524.613" y="285.887" style="fill:#4A6645;" width="5.337" height="7.925"/>
												</g>
											</g>
										</g>
										<g>
											<g>
												<g>
													<rect x="523.794" y="285.887" style="fill:#D1E6D4;" width="5.337" height="7.925"/>
												</g>
											</g>
										</g>
									</g>
								</g>
								<g>
									<g>
										<g>
											<g>
												<g>
													<rect x="541.191" y="285.887" style="fill:#4A6645;" width="5.337" height="7.925"/>
												</g>
											</g>
										</g>
										<g>
											<g>
												<g>
													<rect x="540.372" y="285.887" style="fill:#D1E6D4;" width="5.337" height="7.925"/>
												</g>
											</g>
										</g>
									</g>
								</g>
								<g>
									<g>
										<g>
											<g>
												<g>
													<rect x="557.768" y="285.887" style="fill:#4A6645;" width="5.337" height="7.925"/>
												</g>
											</g>
										</g>
										<g>
											<g>
												<g>
													<rect x="556.95" y="285.887" style="fill:#D1E6D4;" width="5.337" height="7.925"/>
												</g>
											</g>
										</g>
									</g>
								</g>
							</g>
							<g>
								<g>
									<g>
										<g>
											<g>
												<g>
													<rect x="524.613" y="301.98" style="fill:#4A6645;" width="5.337" height="7.925"/>
												</g>
											</g>
										</g>
										<g>
											<g>
												<g>
													<rect x="523.794" y="301.98" style="fill:#D1E6D4;" width="5.337" height="7.925"/>
												</g>
											</g>
										</g>
									</g>
								</g>
								<g>
									<g>
										<g>
											<g>
												<g>
													<rect x="541.191" y="301.98" style="fill:#4A6645;" width="5.337" height="7.925"/>
												</g>
											</g>
										</g>
										<g>
											<g>
												<g>
													<rect x="540.372" y="301.98" style="fill:#D1E6D4;" width="5.337" height="7.925"/>
												</g>
											</g>
										</g>
									</g>
								</g>
								<g>
									<g>
										<g>
											<g>
												<g>
													<rect x="557.768" y="301.98" style="fill:#4A6645;" width="5.337" height="7.925"/>
												</g>
											</g>
										</g>
										<g>
											<g>
												<g>
													<rect x="556.95" y="301.98" style="fill:#D1E6D4;" width="5.337" height="7.925"/>
												</g>
											</g>
										</g>
									</g>
								</g>
							</g>
							<g>
								<g>
									<g>
										<g>
											<g>
												<g>
													<rect x="524.613" y="318.072" style="fill:#4A6645;" width="5.337" height="7.925"/>
												</g>
											</g>
										</g>
										<g>
											<g>
												<g>
													<rect x="523.794" y="318.072" style="fill:#D1E6D4;" width="5.337" height="7.925"/>
												</g>
											</g>
										</g>
									</g>
								</g>
								<g>
									<g>
										<g>
											<g>
												<g>
													<rect x="541.191" y="318.072" style="fill:#4A6645;" width="5.337" height="7.925"/>
												</g>
											</g>
										</g>
										<g>
											<g>
												<g>
													<rect x="540.372" y="318.072" style="fill:#D1E6D4;" width="5.337" height="7.925"/>
												</g>
											</g>
										</g>
									</g>
								</g>
								<g>
									<g>
										<g>
											<g>
												<g>
													<rect x="557.768" y="318.072" style="fill:#4A6645;" width="5.337" height="7.925"/>
												</g>
											</g>
										</g>
										<g>
											<g>
												<g>
													<rect x="556.95" y="318.072" style="fill:#D1E6D4;" width="5.337" height="7.925"/>
												</g>
											</g>
										</g>
									</g>
								</g>
							</g>
							<g>
								<g>
									<g>
										<g>
											<g>
												<g>
													<rect x="524.613" y="334.165" style="fill:#4A6645;" width="5.337" height="7.925"/>
												</g>
											</g>
										</g>
										<g>
											<g>
												<g>
													<rect x="523.794" y="334.165" style="fill:#D1E6D4;" width="5.337" height="7.925"/>
												</g>
											</g>
										</g>
									</g>
								</g>
								<g>
									<g>
										<g>
											<g>
												<g>
													<rect x="541.191" y="334.165" style="fill:#4A6645;" width="5.337" height="7.925"/>
												</g>
											</g>
										</g>
										<g>
											<g>
												<g>
													<rect x="540.372" y="334.165" style="fill:#D1E6D4;" width="5.337" height="7.925"/>
												</g>
											</g>
										</g>
									</g>
								</g>
								<g>
									<g>
										<g>
											<g>
												<g>
													<rect x="557.768" y="334.165" style="fill:#4A6645;" width="5.337" height="7.925"/>
												</g>
											</g>
										</g>
										<g>
											<g>
												<g>
													<rect x="556.95" y="334.165" style="fill:#D1E6D4;" width="5.337" height="7.925"/>
												</g>
											</g>
										</g>
									</g>
								</g>
							</g>
							<g>
								<g>
									<g>
										<g>
											<g>
												<g>
													<rect x="524.613" y="350.257" style="fill:#4A6645;" width="5.337" height="7.925"/>
												</g>
											</g>
										</g>
										<g>
											<g>
												<g>
													<rect x="523.794" y="350.257" style="fill:#D1E6D4;" width="5.337" height="7.925"/>
												</g>
											</g>
										</g>
									</g>
								</g>
								<g>
									<g>
										<g>
											<g>
												<g>
													<rect x="541.191" y="350.257" style="fill:#4A6645;" width="5.337" height="7.925"/>
												</g>
											</g>
										</g>
										<g>
											<g>
												<g>
													<rect x="540.372" y="350.257" style="fill:#D1E6D4;" width="5.337" height="7.925"/>
												</g>
											</g>
										</g>
									</g>
								</g>
								<g>
									<g>
										<g>
											<g>
												<g>
													<rect x="557.768" y="350.257" style="fill:#4A6645;" width="5.337" height="7.925"/>
												</g>
											</g>
										</g>
										<g>
											<g>
												<g>
													<rect x="556.95" y="350.257" style="fill:#D1E6D4;" width="5.337" height="7.925"/>
												</g>
											</g>
										</g>
									</g>
								</g>
							</g>
							<g>
								<g>
									<g>
										<g>
											<g>
												<g>
													<rect x="524.613" y="366.35" style="fill:#4A6645;" width="5.337" height="7.925"/>
												</g>
											</g>
										</g>
										<g>
											<g>
												<g>
													<rect x="523.794" y="366.35" style="fill:#D1E6D4;" width="5.337" height="7.925"/>
												</g>
											</g>
										</g>
									</g>
								</g>
								<g>
									<g>
										<g>
											<g>
												<g>
													<rect x="541.191" y="366.35" style="fill:#4A6645;" width="5.337" height="7.925"/>
												</g>
											</g>
										</g>
										<g>
											<g>
												<g>
													<rect x="540.372" y="366.35" style="fill:#D1E6D4;" width="5.337" height="7.925"/>
												</g>
											</g>
										</g>
									</g>
								</g>
								<g>
									<g>
										<g>
											<g>
												<g>
													<rect x="557.768" y="366.35" style="fill:#4A6645;" width="5.337" height="7.925"/>
												</g>
											</g>
										</g>
										<g>
											<g>
												<g>
													<rect x="556.95" y="366.35" style="fill:#D1E6D4;" width="5.337" height="7.925"/>
												</g>
											</g>
										</g>
									</g>
								</g>
								<g>
									<g>
										<g>
											<g>
												<g>
													<rect x="574.477" y="366.35" style="fill:#4A6645;" width="5.337" height="7.925"/>
												</g>
											</g>
										</g>
										<g>
											<g>
												<g>
													<rect x="573.659" y="366.35" style="fill:#D1E6D4;" width="5.337" height="7.925"/>
												</g>
											</g>
										</g>
									</g>
								</g>
								<g>
									<g>
										<g>
											<g>
												<g>
													<rect x="591.186" y="366.35" style="fill:#4A6645;" width="5.337" height="7.925"/>
												</g>
											</g>
										</g>
										<g>
											<g>
												<g>
													<rect x="590.367" y="366.35" style="fill:#D1E6D4;" width="5.337" height="7.925"/>
												</g>
											</g>
										</g>
									</g>
								</g>
							</g>
							<g>
								<g>
									<g>
										<g>
											<g>
												<g>
													<rect x="524.613" y="384.02" style="fill:#4A6645;" width="5.337" height="7.925"/>
												</g>
											</g>
										</g>
										<g>
											<g>
												<g>
													<rect x="523.794" y="384.02" style="fill:#D1E6D4;" width="5.337" height="7.925"/>
												</g>
											</g>
										</g>
									</g>
								</g>
								<g>
									<g>
										<g>
											<g>
												<g>
													<rect x="541.191" y="384.02" style="fill:#4A6645;" width="5.337" height="7.925"/>
												</g>
											</g>
										</g>
										<g>
											<g>
												<g>
													<rect x="540.372" y="384.02" style="fill:#D1E6D4;" width="5.337" height="7.925"/>
												</g>
											</g>
										</g>
									</g>
								</g>
								<g>
									<g>
										<g>
											<g>
												<g>
													<rect x="557.768" y="384.02" style="fill:#4A6645;" width="5.337" height="7.925"/>
												</g>
											</g>
										</g>
										<g>
											<g>
												<g>
													<rect x="556.95" y="384.02" style="fill:#D1E6D4;" width="5.337" height="7.925"/>
												</g>
											</g>
										</g>
									</g>
								</g>
								<g>
									<g>
										<g>
											<g>
												<g>
													<rect x="574.477" y="384.02" style="fill:#4A6645;" width="5.337" height="7.925"/>
												</g>
											</g>
										</g>
										<g>
											<g>
												<g>
													<rect x="573.659" y="384.02" style="fill:#D1E6D4;" width="5.337" height="7.925"/>
												</g>
											</g>
										</g>
									</g>
								</g>
								<g>
									<g>
										<g>
											<g>
												<g>
													<rect x="591.186" y="384.02" style="fill:#4A6645;" width="5.337" height="7.925"/>
												</g>
											</g>
										</g>
										<g>
											<g>
												<g>
													<rect x="590.367" y="384.02" style="fill:#D1E6D4;" width="5.337" height="7.925"/>
												</g>
											</g>
										</g>
									</g>
								</g>
							</g>
							<g>
								<g>
									<g>
										<g>
											<g>
												<g>
													<rect x="524.613" y="401.69" style="fill:#4A6645;" width="5.337" height="7.925"/>
												</g>
											</g>
										</g>
										<g>
											<g>
												<g>
													<rect x="523.794" y="401.69" style="fill:#D1E6D4;" width="5.337" height="7.925"/>
												</g>
											</g>
										</g>
									</g>
								</g>
								<g>
									<g>
										<g>
											<g>
												<g>
													<rect x="541.191" y="401.69" style="fill:#4A6645;" width="5.337" height="7.925"/>
												</g>
											</g>
										</g>
										<g>
											<g>
												<g>
													<rect x="540.372" y="401.69" style="fill:#D1E6D4;" width="5.337" height="7.925"/>
												</g>
											</g>
										</g>
									</g>
								</g>
								<g>
									<g>
										<g>
											<g>
												<g>
													<rect x="557.768" y="401.69" style="fill:#4A6645;" width="5.337" height="7.925"/>
												</g>
											</g>
										</g>
										<g>
											<g>
												<g>
													<rect x="556.95" y="401.69" style="fill:#D1E6D4;" width="5.337" height="7.925"/>
												</g>
											</g>
										</g>
									</g>
								</g>
								<g>
									<g>
										<g>
											<g>
												<g>
													<rect x="574.477" y="401.69" style="fill:#4A6645;" width="5.337" height="7.925"/>
												</g>
											</g>
										</g>
										<g>
											<g>
												<g>
													<rect x="573.659" y="401.69" style="fill:#D1E6D4;" width="5.337" height="7.925"/>
												</g>
											</g>
										</g>
									</g>
								</g>
								<g>
									<g>
										<g>
											<g>
												<g>
													<rect x="591.186" y="401.69" style="fill:#4A6645;" width="5.337" height="7.925"/>
												</g>
											</g>
										</g>
										<g>
											<g>
												<g>
													<rect x="590.367" y="401.69" style="fill:#D1E6D4;" width="5.337" height="7.925"/>
												</g>
											</g>
										</g>
									</g>
								</g>
							</g>
						</g>
					</g>
					<polygon style="fill:#2B4127;" points="623.292,352.279 574.477,311.017 574.477,352.279 					"/>
				</g>
				<g>
					<rect x="284.109" y="265.625" style="fill:#D1E6D4;" width="71.082" height="144"/>
					<polygon style="fill:#5B7957;" points="355.191,265.625 399.92,237.452 399.92,409.625 355.191,409.625 					"/>
					<g>
						<g>
							<rect x="294.467" y="283.539" style="fill:#384945;" width="3.481" height="14.609"/>
							<rect x="294.467" y="283.539" style="fill:#B7CAB8;" width="1.023" height="14.609"/>
						</g>
						<g>
							<rect x="306.12" y="283.539" style="fill:#384945;" width="3.481" height="14.609"/>
							<rect x="306.12" y="283.539" style="fill:#B7CAB8;" width="1.023" height="14.609"/>
						</g>
						<g>
							<rect x="317.772" y="283.539" style="fill:#384945;" width="3.481" height="14.609"/>
							<rect x="317.772" y="283.539" style="fill:#B7CAB8;" width="1.023" height="14.609"/>
						</g>
						<g>
							<rect x="329.424" y="283.539" style="fill:#384945;" width="3.481" height="14.609"/>
							<rect x="329.424" y="283.539" style="fill:#B7CAB8;" width="1.023" height="14.609"/>
						</g>
						<g>
							<rect x="341.076" y="283.539" style="fill:#384945;" width="3.481" height="14.609"/>
							<rect x="341.076" y="283.539" style="fill:#B7CAB8;" width="1.023" height="14.609"/>
						</g>
					</g>
					<g>
						<g>
							<rect x="294.467" y="307.017" style="fill:#384945;" width="3.481" height="14.609"/>
							<rect x="294.467" y="307.017" style="fill:#B7CAB8;" width="1.023" height="14.609"/>
						</g>
						<g>
							<rect x="306.12" y="307.017" style="fill:#384945;" width="3.481" height="14.609"/>
							<rect x="306.12" y="307.017" style="fill:#B7CAB8;" width="1.023" height="14.609"/>
						</g>
						<g>
							<rect x="317.772" y="307.017" style="fill:#384945;" width="3.481" height="14.609"/>
							<rect x="317.772" y="307.017" style="fill:#B7CAB8;" width="1.023" height="14.609"/>
						</g>
						<g>
							<rect x="329.424" y="307.017" style="fill:#384945;" width="3.481" height="14.609"/>
							<rect x="329.424" y="307.017" style="fill:#B7CAB8;" width="1.023" height="14.609"/>
						</g>
						<g>
							<rect x="341.076" y="307.017" style="fill:#384945;" width="3.481" height="14.609"/>
							<rect x="341.076" y="307.017" style="fill:#B7CAB8;" width="1.023" height="14.609"/>
						</g>
					</g>
					<g>
						<g>
							<rect x="294.467" y="330.495" style="fill:#384945;" width="3.481" height="14.609"/>
							<rect x="294.467" y="330.495" style="fill:#B7CAB8;" width="1.023" height="14.609"/>
						</g>
						<g>
							<rect x="306.12" y="330.495" style="fill:#384945;" width="3.481" height="14.609"/>
							<rect x="306.12" y="330.495" style="fill:#B7CAB8;" width="1.023" height="14.609"/>
						</g>
						<g>
							<rect x="317.772" y="330.495" style="fill:#384945;" width="3.481" height="14.609"/>
							<rect x="317.772" y="330.495" style="fill:#B7CAB8;" width="1.023" height="14.609"/>
						</g>
						<g>
							<rect x="329.424" y="330.495" style="fill:#384945;" width="3.481" height="14.609"/>
							<rect x="329.424" y="330.495" style="fill:#B7CAB8;" width="1.023" height="14.609"/>
						</g>
						<g>
							<rect x="341.076" y="330.495" style="fill:#384945;" width="3.481" height="14.609"/>
							<rect x="341.076" y="330.495" style="fill:#B7CAB8;" width="1.023" height="14.609"/>
						</g>
					</g>
					<g>
						<g>
							<rect x="294.467" y="353.973" style="fill:#384945;" width="3.481" height="14.609"/>
							<rect x="294.467" y="353.973" style="fill:#B7CAB8;" width="1.023" height="14.609"/>
						</g>
						<g>
							<rect x="306.12" y="353.973" style="fill:#384945;" width="3.481" height="14.609"/>
							<rect x="306.12" y="353.973" style="fill:#B7CAB8;" width="1.023" height="14.609"/>
						</g>
						<g>
							<rect x="317.772" y="353.973" style="fill:#384945;" width="3.481" height="14.609"/>
							<rect x="317.772" y="353.973" style="fill:#B7CAB8;" width="1.023" height="14.609"/>
						</g>
						<g>
							<rect x="329.424" y="353.973" style="fill:#384945;" width="3.481" height="14.609"/>
							<rect x="329.424" y="353.973" style="fill:#B7CAB8;" width="1.023" height="14.609"/>
						</g>
						<g>
							<rect x="341.076" y="353.973" style="fill:#384945;" width="3.481" height="14.609"/>
							<rect x="341.076" y="353.973" style="fill:#B7CAB8;" width="1.023" height="14.609"/>
						</g>
					</g>
				</g>
				<polygon style="fill:#2B4127;" points="284.109,265.625 328.465,237.452 399.92,237.452 355.191,265.625 				"/>
				<g>
					<polygon style="fill:#FFFFFF;" points="351.354,418.677 408.223,418.677 408.223,325.888 379.004,295.367 351.354,325.888 
											"/>
					<polygon style="fill:#456B8D;" points="379.004,295.367 445.006,295.367 476.219,325.888 408.223,325.888 					"/>
					<rect x="408.223" y="325.888" style="fill:#739FBD;" width="67.995" height="116.607"/>
					<rect x="418.35" y="334.367" style="fill:#25394D;" width="8.934" height="12.076"/>
					<rect x="438.481" y="334.367" style="fill:#25394D;" width="8.934" height="12.076"/>
					<rect x="458.612" y="334.367" style="fill:#25394D;" width="8.933" height="12.076"/>
					<rect x="418.35" y="362.47" style="fill:#25394D;" width="8.934" height="12.076"/>
					<rect x="438.481" y="362.47" style="fill:#25394D;" width="8.934" height="12.076"/>
					<rect x="365.256" y="334.367" style="fill:#25394D;" width="8.933" height="12.076"/>
					<rect x="385.387" y="334.367" style="fill:#25394D;" width="8.934" height="12.076"/>
					<rect x="365.256" y="362.47" style="fill:#25394D;" width="8.933" height="12.076"/>
					<rect x="385.387" y="362.47" style="fill:#25394D;" width="8.934" height="12.076"/>
					<rect x="458.612" y="362.47" style="fill:#25394D;" width="8.933" height="12.076"/>
					<rect x="418.35" y="390.574" style="fill:#25394D;" width="8.934" height="12.076"/>
					<rect x="438.481" y="390.574" style="fill:#25394D;" width="8.934" height="12.076"/>
					<rect x="458.612" y="390.574" style="fill:#25394D;" width="8.933" height="12.076"/>
					<rect x="418.35" y="418.677" style="fill:#25394D;" width="8.934" height="12.076"/>
					<rect x="438.481" y="418.677" style="fill:#25394D;" width="8.934" height="12.076"/>
					<rect x="458.612" y="418.677" style="fill:#25394D;" width="8.933" height="12.076"/>
					<g>
						<rect x="340.228" y="370.952" style="fill:#739FBD;" width="67.995" height="71.544"/>
						<rect x="303.33" y="370.952" style="fill:#25394D;" width="36.748" height="71.544"/>
						<rect x="355.191" y="390.574" style="fill:#25394D;" width="8.934" height="12.076"/>
						<rect x="375.322" y="390.574" style="fill:#25394D;" width="8.934" height="12.076"/>
						<rect x="395.453" y="390.574" style="fill:#25394D;" width="8.934" height="12.076"/>
						<rect x="355.191" y="418.677" style="fill:#25394D;" width="8.934" height="12.076"/>
						<rect x="375.322" y="418.677" style="fill:#25394D;" width="8.934" height="12.076"/>
						<rect x="395.453" y="418.677" style="fill:#25394D;" width="8.934" height="12.076"/>
					</g>
				</g>
				<g>
					<polygon style="fill:#FFFFFF;" points="203.6,442.495 260.47,442.495 260.47,356.408 231.251,325.888 203.6,356.408 					"/>
					<polygon style="fill:#365475;" points="231.251,325.888 297.252,325.888 328.465,356.408 260.47,356.408 					"/>
					<rect x="260.47" y="356.408" style="fill:#87B3D8;" width="67.995" height="86.087"/>
					<rect x="272.62" y="367.234" style="fill:#25394D;" width="5.5" height="7.435"/>
					<rect x="281.359" y="367.234" style="fill:#25394D;" width="5.5" height="7.435"/>
					<rect x="290.098" y="367.234" style="fill:#25394D;" width="5.5" height="7.435"/>
					<rect x="298.837" y="367.234" style="fill:#25394D;" width="5.5" height="7.435"/>
					<rect x="307.576" y="367.234" style="fill:#25394D;" width="5.5" height="7.435"/>
					<rect x="316.315" y="367.234" style="fill:#25394D;" width="5.5" height="7.435"/>
					<rect x="272.62" y="382.56" style="fill:#25394D;" width="5.5" height="7.435"/>
					<rect x="281.359" y="382.56" style="fill:#25394D;" width="5.5" height="7.435"/>
					<rect x="290.098" y="382.56" style="fill:#25394D;" width="5.5" height="7.435"/>
					<rect x="298.837" y="382.56" style="fill:#25394D;" width="5.5" height="7.435"/>
					<rect x="307.576" y="382.56" style="fill:#25394D;" width="5.5" height="7.435"/>
					<rect x="316.315" y="382.56" style="fill:#25394D;" width="5.5" height="7.435"/>
					<rect x="272.62" y="397.886" style="fill:#25394D;" width="5.5" height="7.435"/>
					<rect x="281.359" y="397.886" style="fill:#25394D;" width="5.5" height="7.435"/>
					<rect x="290.098" y="397.886" style="fill:#25394D;" width="5.5" height="7.435"/>
					<rect x="298.837" y="397.886" style="fill:#25394D;" width="5.5" height="7.435"/>
					<rect x="307.576" y="397.886" style="fill:#25394D;" width="5.5" height="7.435"/>
					<rect x="316.315" y="397.886" style="fill:#25394D;" width="5.5" height="7.435"/>
					<rect x="272.62" y="413.212" style="fill:#25394D;" width="5.5" height="7.435"/>
					<rect x="247.228" y="367.234" style="fill:#25394D;" width="5.5" height="7.435"/>
					<rect x="247.228" y="382.56" style="fill:#25394D;" width="5.5" height="7.435"/>
					<rect x="247.228" y="397.886" style="fill:#25394D;" width="5.5" height="7.435"/>
					<rect x="247.228" y="413.212" style="fill:#25394D;" width="5.5" height="7.435"/>
					<rect x="228.501" y="367.234" style="fill:#25394D;" width="5.5" height="7.435"/>
					<rect x="228.501" y="382.56" style="fill:#25394D;" width="5.5" height="7.435"/>
					<rect x="228.501" y="397.886" style="fill:#25394D;" width="5.5" height="7.435"/>
					<rect x="228.501" y="413.212" style="fill:#25394D;" width="5.5" height="7.435"/>
					<rect x="209.144" y="367.234" style="fill:#25394D;" width="5.5" height="7.435"/>
					<rect x="209.144" y="382.56" style="fill:#25394D;" width="5.5" height="7.435"/>
					<rect x="209.144" y="397.886" style="fill:#25394D;" width="5.5" height="7.435"/>
					<rect x="209.144" y="413.212" style="fill:#25394D;" width="5.5" height="7.435"/>
					<rect x="281.359" y="413.212" style="fill:#25394D;" width="5.5" height="7.435"/>
					<rect x="290.098" y="413.212" style="fill:#25394D;" width="5.5" height="7.435"/>
					<rect x="298.837" y="413.212" style="fill:#25394D;" width="5.5" height="7.435"/>
					<rect x="307.576" y="413.212" style="fill:#25394D;" width="5.5" height="7.435"/>
					<rect x="316.315" y="413.212" style="fill:#25394D;" width="5.5" height="7.435"/>
				</g>
				<path style="fill:#25394D;" d="M476.219,356.539c0,0,17.642-7.522,28.599,16.304s30.783,9.413,46.174,23.769
					c15.391,14.356,18.261,39.361,18.261,39.361h-93.034V356.539z"/>
				<path style="fill:#456B8D;" d="M476.219,442.495h193.642c0,0-5.217-13.391-22.261-14.435
					c-17.043-1.044-18.783-13.696-42.087-14.848c-23.304-1.152-52.522,10.326-71.304,3.717
					c-18.783-6.609-20.252-33.025-57.99-23.652V442.495z"/>
				<g>
					<circle style="fill:#62A84B;" cx="529.359" cy="413.218" r="5.747"/>
					
						<ellipse transform="matrix(0.2288 -0.9735 0.9735 0.2288 6.865 817.4161)" style="fill:#62A84B;" cx="519.317" cy="404.375" rx="10.109" ry="10.109"/>
					<path style="fill:#62A84B;" d="M516.172,410.473c0,3.174-2.573,5.746-5.747,5.746c-3.174,0-5.746-2.573-5.746-5.746
						s2.573-5.746,5.746-5.746C513.599,404.727,516.172,407.3,516.172,410.473z"/>
					<path style="fill:#25394D;" d="M520.194,442.495h-1.754v-38.774c0-0.484,0.393-0.877,0.877-0.877l0,0
						c0.484,0,0.877,0.393,0.877,0.877V442.495z"/>
					<g>
						<path style="fill:#25394D;" d="M519.317,420.016c2.932,0,5.865,0,8.797,0c0.415,0,0.83,0,1.244,0c0.47,0,0.87-0.398,0.87-0.87
							c0-1.653,0-3.307,0-4.96c0-1.119-1.739-1.121-1.739,0c0,1.653,0,3.307,0,4.96c0.29-0.29,0.58-0.58,0.87-0.87
							c-2.932,0-5.865,0-8.797,0c-0.415,0-0.829,0-1.244,0C518.198,418.276,518.196,420.016,519.317,420.016L519.317,420.016z"/>
					</g>
					<g>
						<path style="fill:#25394D;" d="M519.317,415.978c-2.579,0-5.158,0-7.737,0c-0.365,0-0.729,0-1.094,0
							c0.29,0.29,0.58,0.58,0.87,0.87c0-1.129,0-2.258,0-3.387c0-1.119-1.739-1.121-1.739,0c0,1.129,0,2.258,0,3.387
							c0,0.47,0.398,0.869,0.87,0.869c2.579,0,5.158,0,7.737,0c0.365,0,0.729,0,1.094,0
							C520.436,417.717,520.438,415.978,519.317,415.978L519.317,415.978z"/>
					</g>
				</g>
				<g>
					<circle style="fill:#62A84B;" cx="630.111" cy="413.218" r="5.747"/>
					
						<ellipse transform="matrix(0.2288 -0.9735 0.9735 0.2288 84.5693 915.497)" style="fill:#62A84B;" cx="620.07" cy="404.375" rx="10.109" ry="10.109"/>
					<circle style="fill:#62A84B;" cx="611.178" cy="410.473" r="5.747"/>
					<path style="fill:#25394D;" d="M620.947,442.495h-1.754v-38.774c0-0.484,0.393-0.877,0.877-0.877l0,0
						c0.484,0,0.877,0.393,0.877,0.877V442.495z"/>
					<g>
						<path style="fill:#25394D;" d="M620.07,420.016c2.932,0,5.865,0,8.797,0c0.415,0,0.829,0,1.244,0c0.47,0,0.87-0.398,0.87-0.87
							c0-1.653,0-3.307,0-4.96c0-1.119-1.739-1.121-1.739,0c0,1.653,0,3.307,0,4.96c0.29-0.29,0.58-0.58,0.87-0.87
							c-2.932,0-5.865,0-8.797,0c-0.415,0-0.829,0-1.244,0C618.951,418.276,618.949,420.016,620.07,420.016L620.07,420.016z"/>
					</g>
					<g>
						<path style="fill:#25394D;" d="M620.07,415.978c-2.579,0-5.158,0-7.737,0c-0.365,0-0.729,0-1.094,0
							c0.29,0.29,0.58,0.58,0.87,0.87c0-1.129,0-2.258,0-3.387c0-1.119-1.739-1.121-1.739,0c0,1.129,0,2.258,0,3.387
							c0,0.47,0.398,0.869,0.87,0.869c2.579,0,5.158,0,7.737,0c0.365,0,0.729,0,1.094,0
							C621.189,417.717,621.191,415.978,620.07,415.978L620.07,415.978z"/>
					</g>
				</g>
				<g>
					<circle style="fill:#62A84B;" cx="131.706" cy="398.29" r="8.677"/>
					
						<ellipse transform="matrix(0.2313 -0.9729 0.9729 0.2313 -284.9107 409.3013)" style="fill:#62A84B;" cx="116.545" cy="384.938" rx="15.264" ry="15.264"/>
					
						<ellipse transform="matrix(0.2378 -0.9713 0.9713 0.2378 -304.242 400.5682)" style="fill:#62A84B;" cx="103.119" cy="394.145" rx="8.677" ry="8.677"/>
					<path style="fill:#25394D;" d="M117.869,442.495h-2.649V383.95c0-0.731,0.593-1.324,1.324-1.324l0,0
						c0.731,0,1.324,0.593,1.324,1.324V442.495z"/>
					<g>
						<path style="fill:#25394D;" d="M116.545,408.553c4.428,0,8.855,0,13.283,0c0.626,0,1.252,0,1.879,0
							c0.71,0,1.313-0.602,1.313-1.313c0-2.496,0-4.993,0-7.489c0-1.69-2.626-1.692-2.626,0c0,2.497,0,4.993,0,7.489
							c0.438-0.438,0.875-0.875,1.313-1.313c-4.428,0-8.855,0-13.283,0c-0.626,0-1.252,0-1.878,0
							C114.855,405.927,114.852,408.553,116.545,408.553L116.545,408.553z"/>
					</g>
					<g>
						<path style="fill:#25394D;" d="M116.545,402.457c-3.894,0-7.788,0-11.683,0c-0.551,0-1.102,0-1.652,0
							c0.438,0.438,0.875,0.875,1.313,1.313c0-1.705,0-3.41,0-5.115c0-1.69-2.626-1.692-2.626,0c0,1.705,0,3.41,0,5.115
							c0,0.71,0.602,1.313,1.313,1.313c3.894,0,7.788,0,11.682,0c0.551,0,1.101,0,1.652,0
							C118.234,405.082,118.237,402.457,116.545,402.457L116.545,402.457z"/>
					</g>
				</g>
				<g>
					<circle style="fill:#5EA1A7;" cx="213.067" cy="413.218" r="5.747"/>
					
						<ellipse transform="matrix(0.2288 -0.9735 0.9735 0.2288 -237.0713 509.5116)" style="fill:#5EA1A7;" cx="203.026" cy="404.375" rx="10.109" ry="10.109"/>
					<path style="fill:#5EA1A7;" d="M199.88,410.473c0,3.174-2.573,5.746-5.747,5.746c-3.174,0-5.747-2.573-5.747-5.746
						s2.573-5.746,5.747-5.746C197.307,404.727,199.88,407.3,199.88,410.473z"/>
					<path style="fill:#25394D;" d="M203.903,442.495h-1.754v-38.774c0-0.484,0.393-0.877,0.877-0.877l0,0
						c0.484,0,0.877,0.393,0.877,0.877V442.495z"/>
					<g>
						<path style="fill:#25394D;" d="M203.025,420.016c2.932,0,5.865,0,8.797,0c0.415,0,0.829,0,1.244,0
							c0.47,0,0.87-0.398,0.87-0.87c0-1.653,0-3.307,0-4.96c0-1.119-1.739-1.121-1.739,0c0,1.653,0,3.307,0,4.96
							c0.29-0.29,0.58-0.58,0.869-0.87c-2.932,0-5.865,0-8.797,0c-0.415,0-0.829,0-1.244,0
							C201.906,418.276,201.905,420.016,203.025,420.016L203.025,420.016z"/>
					</g>
					<g>
						<path style="fill:#25394D;" d="M203.025,415.978c-2.579,0-5.158,0-7.737,0c-0.365,0-0.73,0-1.094,0
							c0.29,0.29,0.58,0.58,0.87,0.87c0-1.129,0-2.258,0-3.387c0-1.119-1.739-1.121-1.739,0c0,1.129,0,2.258,0,3.387
							c0,0.47,0.398,0.869,0.87,0.869c2.579,0,5.158,0,7.737,0c0.365,0,0.73,0,1.094,0
							C204.145,417.717,204.146,415.978,203.025,415.978L203.025,415.978z"/>
					</g>
				</g>
				<g>
					
						<ellipse transform="matrix(0.7071 -0.7071 0.7071 0.7071 -177.2415 378.228)" style="fill:#7CCCCC;" cx="367.941" cy="403.063" rx="7.74" ry="7.74"/>
					
						<ellipse transform="matrix(0.7071 -0.7071 0.7071 0.7071 -172.7813 365.1768)" style="fill:#7CCCCC;" cx="354.417" cy="391.154" rx="13.615" ry="13.615"/>
					
						<ellipse transform="matrix(0.258 -0.9661 0.9661 0.258 -131.7648 627.1573)" style="fill:#7CCCCC;" cx="342.441" cy="399.367" rx="7.74" ry="7.74"/>
					<path style="fill:#25394D;" d="M355.598,442.495h-2.363v-52.222c0-0.652,0.529-1.181,1.181-1.181l0,0
						c0.652,0,1.181,0.529,1.181,1.181V442.495z"/>
					<g>
						<path style="fill:#25394D;" d="M354.417,412.219c3.949,0,7.899,0,11.848,0c0.559,0,1.117,0,1.676,0
							c0.633,0,1.171-0.537,1.171-1.171c0-2.227,0-4.454,0-6.681c0-1.507-2.342-1.51-2.342,0c0,2.227,0,4.454,0,6.681
							c0.39-0.39,0.781-0.781,1.171-1.171c-3.949,0-7.899,0-11.848,0c-0.559,0-1.117,0-1.676,0
							C352.91,409.876,352.907,412.219,354.417,412.219L354.417,412.219z"/>
					</g>
					<g>
						<path style="fill:#25394D;" d="M354.417,406.781c-3.474,0-6.947,0-10.421,0c-0.491,0-0.982,0-1.474,0
							c0.39,0.39,0.781,0.781,1.171,1.171c0-1.521,0-3.042,0-4.562c0-1.507-2.342-1.51-2.342,0c0,1.521,0,3.042,0,4.562
							c0,0.633,0.537,1.171,1.171,1.171c3.474,0,6.947,0,10.421,0c0.491,0,0.982,0,1.474,0
							C355.924,409.123,355.926,406.781,354.417,406.781L354.417,406.781z"/>
					</g>
				</g>
				<g>
					<circle style="fill:#62A84B;" cx="490.991" cy="396.808" r="8.967"/>
					
						<ellipse transform="matrix(0.7071 -0.7071 0.7071 0.7071 -131.6101 448.2841)" style="fill:#62A84B;" cx="475.322" cy="383.009" rx="15.775" ry="15.775"/>
					
						<ellipse transform="matrix(0.9247 -0.3806 0.3806 0.9247 -114.6665 205.1676)" style="fill:#62A84B;" cx="461.446" cy="392.525" rx="8.967" ry="8.967"/>
					<path style="fill:#25394D;" d="M476.69,442.495h-2.737v-60.507c0-0.756,0.613-1.369,1.369-1.369l0,0
						c0.756,0,1.369,0.613,1.369,1.369V442.495z"/>
					<g>
						<path style="fill:#25394D;" d="M475.322,407.416c4.576,0,9.152,0,13.728,0c0.647,0,1.294,0,1.941,0
							c0.734,0,1.357-0.622,1.357-1.357c0-2.58,0-5.16,0-7.74c0-1.746-2.714-1.749-2.714,0c0,2.58,0,5.16,0,7.74
							c0.452-0.452,0.905-0.905,1.357-1.357c-4.576,0-9.152,0-13.728,0c-0.647,0-1.294,0-1.941,0
							C473.576,404.702,473.573,407.416,475.322,407.416L475.322,407.416z"/>
					</g>
					<g>
						<path style="fill:#25394D;" d="M475.322,401.115c-4.025,0-8.049,0-12.074,0c-0.569,0-1.138,0-1.708,0
							c0.452,0.452,0.905,0.905,1.357,1.357c0-1.762,0-3.524,0-5.286c0-1.746-2.714-1.749-2.714,0c0,1.762,0,3.524,0,5.286
							c0,0.734,0.622,1.357,1.357,1.357c4.025,0,8.049,0,12.074,0c0.569,0,1.138,0,1.708,0
							C477.068,403.829,477.071,401.115,475.322,401.115L475.322,401.115z"/>
					</g>
				</g>
				<g>
					
						<ellipse transform="matrix(0.7592 -0.6508 0.6508 0.7592 -69.7682 497.1527)" style="fill:#5EA1A7;" cx="637.052" cy="342.873" rx="8.22" ry="8.22"/>
					
						<ellipse transform="matrix(0.2283 -0.9736 0.9736 0.2283 159.005 861.0616)" style="fill:#5EA1A7;" cx="622.69" cy="330.225" rx="14.46" ry="14.46"/>
					<circle style="fill:#5EA1A7;" cx="609.971" cy="338.947" r="8.22"/>
					<path style="fill:#25394D;" d="M623.944,384.749h-2.509v-55.46c0-0.693,0.562-1.255,1.255-1.255l0,0
						c0.693,0,1.255,0.562,1.255,1.255V384.749z"/>
					<g>
						<path style="fill:#25394D;" d="M622.69,352.596c4.194,0,8.389,0,12.583,0c0.593,0,1.186,0,1.78,0
							c0.672,0,1.244-0.57,1.244-1.244c0-2.365,0-4.73,0-7.095c0-1.601-2.488-1.603-2.488,0c0,2.365,0,4.73,0,7.095
							c0.415-0.415,0.829-0.829,1.244-1.244c-4.194,0-8.389,0-12.583,0c-0.593,0-1.186,0-1.78,0
							C621.089,350.108,621.087,352.596,622.69,352.596L622.69,352.596z"/>
					</g>
					<g>
						<path style="fill:#25394D;" d="M622.69,346.82c-3.689,0-7.378,0-11.067,0c-0.522,0-1.044,0-1.565,0
							c0.415,0.414,0.829,0.829,1.244,1.244c0-1.615,0-3.23,0-4.845c0-1.601-2.487-1.603-2.487,0c0,1.615,0,3.23,0,4.845
							c0,0.672,0.57,1.244,1.244,1.244c3.689,0,7.378,0,11.067,0c0.522,0,1.044,0,1.565,0
							C624.29,349.308,624.293,346.82,622.69,346.82L622.69,346.82z"/>
					</g>
				</g>
			</g>
		</g>
	</g>
	<g>
		<g>
			<g>
				<path style="fill:#FFFFFF;" d="M310.609,50.37c3.217,0,3.223-5,0-5C307.391,45.37,307.386,50.37,310.609,50.37L310.609,50.37z"
					/>
			</g>
		</g>
		<g>
			<g>
				<path style="fill:#FFFFFF;" d="M360.696,43.554c1.609,0,1.611-2.5,0-2.5C359.087,41.054,359.084,43.554,360.696,43.554
					L360.696,43.554z"/>
			</g>
		</g>
		<g>
			<g>
				<path style="fill:#FFFFFF;" d="M352.348,104.772c1.609,0,1.611-2.5,0-2.5C350.739,102.272,350.736,104.772,352.348,104.772
					L352.348,104.772z"/>
			</g>
		</g>
		<g>
			<g>
				<path style="fill:#FFFFFF;" d="M472.696,86.685c1.609,0,1.611-2.5,0-2.5C471.087,84.185,471.084,86.685,472.696,86.685
					L472.696,86.685z"/>
			</g>
		</g>
		<g>
			<g>
				<path style="fill:#FFFFFF;" d="M517.217,46.337c1.609,0,1.611-2.5,0-2.5C515.609,43.837,515.606,46.337,517.217,46.337
					L517.217,46.337z"/>
			</g>
		</g>
		<g>
			<g>
				<path style="fill:#FFFFFF;" d="M622.261,178.511c1.609,0,1.611-2.5,0-2.5C620.652,176.011,620.65,178.511,622.261,178.511
					L622.261,178.511z"/>
			</g>
		</g>
		<g>
			<g>
				<path style="fill:#FFFFFF;" d="M721.739,59.554c1.609,0,1.611-2.5,0-2.5C720.13,57.054,720.128,59.554,721.739,59.554
					L721.739,59.554z"/>
			</g>
		</g>
		<g>
			<g>
				<path style="fill:#FFFFFF;" d="M222.261,159.728c1.609,0,1.611-2.5,0-2.5C220.652,157.228,220.65,159.728,222.261,159.728
					L222.261,159.728z"/>
			</g>
		</g>
		<g>
			<g>
				<path style="fill:#FFFFFF;" d="M180.522,177.12c1.609,0,1.611-2.5,0-2.5C178.913,174.62,178.91,177.12,180.522,177.12
					L180.522,177.12z"/>
			</g>
		</g>
		<g>
			<g>
				<path style="fill:#FFFFFF;" d="M58.087,110.337c1.609,0,1.611-2.5,0-2.5C56.478,107.837,56.476,110.337,58.087,110.337
					L58.087,110.337z"/>
			</g>
		</g>
		<g>
			<g>
				<path style="fill:#FFFFFF;" d="M108.174,52.598c1.609,0,1.611-2.5,0-2.5C106.565,50.098,106.563,52.598,108.174,52.598
					L108.174,52.598z"/>
			</g>
		</g>
		<g>
			<g>
				<path style="fill:#FFFFFF;" d="M99.13,123.554c1.609,0,1.611-2.5,0-2.5C97.522,121.054,97.519,123.554,99.13,123.554
					L99.13,123.554z"/>
			</g>
		</g>
		<g>
			<g>
				<path style="fill:#FFFFFF;" d="M38.609,49.815c1.609,0,1.611-2.5,0-2.5C37,47.315,36.997,49.815,38.609,49.815L38.609,49.815z"
					/>
			</g>
		</g>
		<g>
			<g>
				<path style="fill:#FFFFFF;" d="M37.217,161.12c1.609,0,1.611-2.5,0-2.5C35.609,158.62,35.606,161.12,37.217,161.12
					L37.217,161.12z"/>
			</g>
		</g>
		<g>
			<g>
				<path style="fill:#FFFFFF;" d="M275.826,90.163c1.609,0,1.611-2.5,0-2.5C274.217,87.663,274.215,90.163,275.826,90.163
					L275.826,90.163z"/>
			</g>
		</g>
		<g>
			<g>
				<path style="fill:#FFFFFF;" d="M597.913,54.685c1.609,0,1.611-2.5,0-2.5C596.304,52.185,596.302,54.685,597.913,54.685
					L597.913,54.685z"/>
			</g>
		</g>
		<g>
			<g>
				<path style="fill:#FFFFFF;" d="M709.217,189.641c1.609,0,1.611-2.5,0-2.5C707.609,187.141,707.606,189.641,709.217,189.641
					L709.217,189.641z"/>
			</g>
		</g>
		<g>
			<g>
				<path style="fill:#FFFFFF;" d="M547.826,106.163c1.609,0,1.611-2.5,0-2.5C546.217,103.663,546.215,106.163,547.826,106.163
					L547.826,106.163z"/>
			</g>
		</g>
		<g>
			<g>
				<path style="fill:#FFFFFF;" d="M686.956,234.859c1.609,0,1.611-2.5,0-2.5C685.348,232.359,685.345,234.859,686.956,234.859
					L686.956,234.859z"/>
			</g>
		</g>
		<g>
			<g>
				<path style="fill:#FFFFFF;" d="M124.87,261.293c1.609,0,1.611-2.5,0-2.5C123.261,258.793,123.258,261.293,124.87,261.293
					L124.87,261.293z"/>
			</g>
		</g>
	</g>
	<g>
		
			<ellipse transform="matrix(0.2264 -0.974 0.974 0.2264 80.0877 283.9758)" style="fill:#7CCCCC;" cx="218.813" cy="91.571" rx="34.916" ry="34.916"/>
		<g>
			<g>
				<g>
					<path style="fill:#6FB3E1;" d="M340.071,194.824h-91.208c-5.232,0-9.474-4.242-9.474-9.474l0,0
						c0-5.232,4.242-9.474,9.474-9.474h91.208c5.232,0,9.474,4.242,9.474,9.474l0,0
						C349.545,190.582,345.304,194.824,340.071,194.824z"/>
				</g>
				
					<ellipse transform="matrix(0.1544 -0.988 0.988 0.1544 90.5855 424.3988)" style="fill:#6FB3E1;" cx="293.233" cy="159.278" rx="26.846" ry="26.846"/>
				
					<ellipse transform="matrix(0.7071 -0.7071 0.7071 0.7071 -43.6759 238.2529)" style="fill:#6FB3E1;" cx="265.759" cy="171.848" rx="15.533" ry="15.533"/>
				
					<ellipse transform="matrix(0.7071 -0.7071 0.7071 0.7071 -28.6069 274.6327)" style="fill:#6FB3E1;" cx="317.208" cy="171.848" rx="15.533" ry="15.533"/>
			</g>
		</g>
		<g>
			<path style="fill:#FFFFFF;" d="M559.588,189.146h-66.251c-3.801,0-6.881-3.081-6.881-6.881l0,0c0-3.8,3.081-6.881,6.881-6.881
				h66.251c3.801,0,6.882,3.081,6.882,6.881l0,0C566.47,186.065,563.389,189.146,559.588,189.146z"/>
			<circle style="fill:#FFFFFF;" cx="525.566" cy="163.327" r="19.5"/>
			<circle style="fill:#FFFFFF;" cx="505.61" cy="172.457" r="11.283"/>
			<circle style="fill:#FFFFFF;" cx="542.981" cy="172.457" r="11.283"/>
		</g>
		<g>
			<path style="fill:#FFFFFF;" d="M217.493,140.806h-83.728c-4.803,0-8.697-3.894-8.697-8.697v0c0-4.803,3.894-8.697,8.697-8.697
				h83.728c4.803,0,8.697,3.894,8.697,8.697v0C226.19,136.912,222.296,140.806,217.493,140.806z"/>
			
				<ellipse transform="matrix(0.7071 -0.7071 0.7071 0.7071 -25.3828 155.0714)" style="fill:#FFFFFF;" cx="174.496" cy="108.175" rx="24.644" ry="24.644"/>
			
				<ellipse transform="matrix(0.7071 -0.7071 0.7071 0.7071 -40.9291 140.6171)" style="fill:#FFFFFF;" cx="149.275" cy="119.714" rx="14.259" ry="14.259"/>
			
				<ellipse transform="matrix(0.2312 -0.9729 0.9729 0.2312 34.608 283.2231)" style="fill:#FFFFFF;" cx="196.505" cy="119.714" rx="14.259" ry="14.259"/>
		</g>
		<g>
			<path style="fill:#6FB3E1;" d="M674.33,146.108h-76.945c-4.414,0-7.992-3.578-7.992-7.992l0,0c0-4.414,3.578-7.992,7.992-7.992
				h76.945c4.414,0,7.992,3.578,7.992,7.992l0,0C682.323,142.53,678.744,146.108,674.33,146.108z"/>
			
				<ellipse transform="matrix(0.2275 -0.9738 0.9738 0.2275 390.8643 732.2753)" style="fill:#6FB3E1;" cx="656.99" cy="119.773" rx="22.648" ry="22.648"/>
			
				<ellipse transform="matrix(0.7071 -0.7071 0.7071 0.7071 93.4485 486.3597)" style="fill:#6FB3E1;" cx="633.812" cy="130.378" rx="13.104" ry="13.104"/>
		</g>
		<g>
			<path style="fill:#6FB3E1;" d="M63.424,231.857h76.945c4.414,0,7.992-3.578,7.992-7.992l0,0c0-4.414-3.578-7.992-7.992-7.992
				H63.424c-4.414,0-7.992,3.578-7.992,7.992l0,0C55.432,228.279,59.011,231.857,63.424,231.857z"/>
			<circle style="fill:#6FB3E1;" cx="80.765" cy="205.522" r="22.648"/>
			<circle style="fill:#6FB3E1;" cx="103.943" cy="216.127" r="13.104"/>
		</g>
	</g>
</g>
</svg>
